<svg xmlns="http://www.w3.org/2000/svg" xmlns:xlink="http://www.w3.org/1999/xlink" version="1.1" style="enable-background:new 0 0 512 512;" xml:space="preserve" width="512" height="512"><rect id="backgroundrect" width="100%" height="100%" x="0" y="0" fill="none" stroke="none"/>


















<g class="currentLayer" style=""><title>Layer 1</title><g id="svg_1" class="selected" fill="#f9476c" fill-opacity="1">
	<g id="svg_2" fill="#f9476c" fill-opacity="1">
		<path d="M491.318,235.318H20.682C9.26,235.318,0,244.577,0,256s9.26,20.682,20.682,20.682h470.636    c11.423,0,20.682-9.259,20.682-20.682C512,244.578,502.741,235.318,491.318,235.318z" id="svg_3" fill="#f9476c" fill-opacity="1"/>
	</g>
</g><g id="svg_4" class="selected" fill="#f9476c" fill-opacity="1">
	<g id="svg_5" fill="#f9476c" fill-opacity="1">
		<path d="M491.318,78.439H20.682C9.26,78.439,0,87.699,0,99.121c0,11.422,9.26,20.682,20.682,20.682h470.636    c11.423,0,20.682-9.26,20.682-20.682C512,87.699,502.741,78.439,491.318,78.439z" id="svg_6" fill="#f9476c" fill-opacity="1"/>
	</g>
</g><g id="svg_7" class="selected" fill="#f9476c" fill-opacity="1">
	<g id="svg_8" fill="#f9476c" fill-opacity="1">
		<path d="M491.318,392.197H20.682C9.26,392.197,0,401.456,0,412.879s9.26,20.682,20.682,20.682h470.636    c11.423,0,20.682-9.259,20.682-20.682S502.741,392.197,491.318,392.197z" id="svg_9" fill="#f9476c" fill-opacity="1"/>
	</g>
</g><g id="svg_10">
</g><g id="svg_11">
</g><g id="svg_12">
</g><g id="svg_13">
</g><g id="svg_14">
</g><g id="svg_15">
</g><g id="svg_16">
</g><g id="svg_17">
</g><g id="svg_18">
</g><g id="svg_19">
</g><g id="svg_20">
</g><g id="svg_21">
</g><g id="svg_22">
</g><g id="svg_23">
</g><g id="svg_24">
</g></g></svg>