<svg xmlns="http://www.w3.org/2000/svg" xmlns:xlink="http://www.w3.org/1999/xlink" version="1.1" width="324.259" height="324.259" style="enable-background:new 0 0 324.259 324.259;" xml:space="preserve"><rect id="backgroundrect" width="100%" height="100%" x="0" y="0" fill="none" stroke="none"/>
















<g class="currentLayer" style=""><title>Layer 1</title><g id="svg_1" class="selected" fill-opacity="1" fill="#f9476c">
	<path d="M324.259,139.815v-8.1H149.974c-2.51-3.333-5.281-6.549-8.321-9.592C127.034,107.508,108.351,98.78,91.66,98.78   c-6.568,0-12.562,1.339-17.771,3.899L14.365,30.043c-2.834-3.462-7.939-3.968-11.401-1.128c-3.459,2.834-3.963,7.939-1.129,11.398   l59.661,72.803c-3.889,5.347-6.075,11.701-6.708,18.599H9.532v8.1c0,53.818,27.171,101.4,68.504,129.787   c2.521-1.688,5.405-3.027,8.533-4.008c3.551-1.107,7.43-1.729,11.528-1.729h1.534c-41.736-22.729-70.822-65.871-73.667-115.95   h30.04h16.849h68.515H159.5h148.336c-2.853,50.079-31.941,93.222-73.675,115.939h1.529c4.103,0,7.979,0.633,11.532,1.74   c3.128,0.971,6.007,2.32,8.527,4.003C297.084,241.216,324.259,193.634,324.259,139.815z M76.367,120.52   c4.58-4.577,10.842-5.54,15.298-5.54c11.789,0,25.25,6.249,36.519,16.735H71.118C71.761,127.291,73.456,123.426,76.367,120.52z" id="svg_2" fill="#f9476c"/>
	<path d="M166.899,280.982h-48.492H97.453H92.27c-4.478,0-8.1,3.623-8.1,8.101c0,4.472,3.623,8.1,8.1,8.1h74.635h74.63   c4.482,0,8.1-3.628,8.1-8.1c0-4.478-3.617-8.101-8.1-8.101h-5.179h-20.957H166.899z" id="svg_3" fill="#f9476c"/>
	<path d="M251.137,229.44c16.137-16.443,31.04-36.397,31.177-60.392c0.026-5.221-4.229-8.979-9.233-9.231   c-14.354-0.725-28.72-0.768-43.09-0.768c-11.902,0-11.902,18.463,0,18.468c10.911,0,21.821,0.127,32.732,0.454   c-3.322,14.944-14.106,27.675-24.643,38.411C229.737,224.884,242.784,237.951,251.137,229.44z" id="svg_4" fill="#f9476c"/>
</g><g id="svg_5" class="selected" fill-opacity="1" fill="#f9476c">
</g><g id="svg_6" class="selected" fill-opacity="1" fill="#f9476c">
</g><g id="svg_7" class="selected" fill-opacity="1" fill="#f9476c">
</g><g id="svg_8" class="selected" fill-opacity="1" fill="#f9476c">
</g><g id="svg_9" class="selected" fill-opacity="1" fill="#f9476c">
</g><g id="svg_10" class="selected" fill-opacity="1" fill="#f9476c">
</g><g id="svg_11" class="selected" fill-opacity="1" fill="#f9476c">
</g><g id="svg_12" class="selected" fill-opacity="1" fill="#f9476c">
</g><g id="svg_13" class="selected" fill-opacity="1" fill="#f9476c">
</g><g id="svg_14" class="selected" fill-opacity="1" fill="#f9476c">
</g><g id="svg_15" class="selected" fill-opacity="1" fill="#f9476c">
</g><g id="svg_16" class="selected" fill-opacity="1" fill="#f9476c">
</g><g id="svg_17" class="selected" fill-opacity="1" fill="#f9476c">
</g><g id="svg_18" class="selected" fill-opacity="1" fill="#f9476c">
</g><g id="svg_19" class="selected" fill-opacity="1" fill="#f9476c">
</g></g></svg>